<?xml version="1.0" encoding="UTF-8" standalone="no"?>
<svg
   xmlns:dc="http://purl.org/dc/elements/1.1/"
   xmlns:cc="http://creativecommons.org/ns#"
   xmlns:rdf="http://www.w3.org/1999/02/22-rdf-syntax-ns#"
   xmlns:svg="http://www.w3.org/2000/svg"
   xmlns="http://www.w3.org/2000/svg"
   xmlns:sodipodi="http://sodipodi.sourceforge.net/DTD/sodipodi-0.dtd"
   xmlns:inkscape="http://www.inkscape.org/namespaces/inkscape"
   version="1.1"
   width="256"
   height="32"
   overflow="visible"
   viewBox="0 0 256 32"
   enable-background="new 0.0 0.0 800.0 480.0"
   id="svg880"
   sodipodi:docname="squares.svg"
   style="overflow:visible"
   inkscape:version="0.92.3 (2405546, 2018-03-11)">
  <metadata
     id="metadata884">
    <rdf:RDF>
      <cc:Work
         rdf:about="">
        <dc:format>image/svg+xml</dc:format>
        <dc:type
           rdf:resource="http://purl.org/dc/dcmitype/StillImage" />
        <dc:title></dc:title>
      </cc:Work>
    </rdf:RDF>
  </metadata>
  <sodipodi:namedview
     pagecolor="#ffffff"
     bordercolor="#666666"
     borderopacity="1"
     objecttolerance="10"
     gridtolerance="10"
     guidetolerance="10"
     inkscape:pageopacity="0"
     inkscape:pageshadow="2"
     inkscape:window-width="952"
     inkscape:window-height="1131"
     id="namedview882"
     showgrid="false"
     inkscape:zoom="1.635"
     inkscape:cx="144.00378"
     inkscape:cy="107.80502"
     inkscape:window-x="0"
     inkscape:window-y="0"
     inkscape:window-maximized="0"
     inkscape:current-layer="g876"
     fit-margin-top="0"
     fit-margin-left="0"
     fit-margin-right="0"
     fit-margin-bottom="0"
     inkscape:snap-bbox="true"
     inkscape:snap-bbox-edge-midpoints="true"
     inkscape:snap-nodes="false"
     inkscape:snap-others="false" />
  <defs
     id="defs132">
    <linearGradient
       id="Grad1"
       gradientUnits="userSpaceOnUse"
       gradientTransform="matrix(0,0.01080322,-0.01083374,0,468,268.85)"
       x1="-819.20001"
       y1="0"
       x2="819.20001"
       y2="0">
      <stop
         offset="0.0"
         stop-color="#FFFFFF"
         stop-opacity="0.0"
         id="stop2" />
      <stop
         offset="1.0"
         stop-color="#FFFFFF"
         stop-opacity="0.2"
         id="stop4" />
    </linearGradient>
    <linearGradient
       id="Grad2"
       gradientUnits="userSpaceOnUse"
       gradientTransform="matrix(0,0.01080322,-0.01083374,0,520,268.85)"
       x1="-819.20001"
       y1="0"
       x2="819.20001"
       y2="0">
      <stop
         offset="0.0"
         stop-color="#FFFFFF"
         stop-opacity="0.0"
         id="stop7" />
      <stop
         offset="1.0"
         stop-color="#FFFFFF"
         stop-opacity="0.2"
         id="stop9" />
    </linearGradient>
    <linearGradient
       id="Grad3"
       gradientUnits="userSpaceOnUse"
       gradientTransform="matrix(0,0.01080322,-0.01083374,0,468,216.85)"
       x1="-819.20001"
       y1="0"
       x2="819.20001"
       y2="0">
      <stop
         offset="0.0"
         stop-color="#FFFFFF"
         stop-opacity="0.0"
         id="stop12" />
      <stop
         offset="1.0"
         stop-color="#FFFFFF"
         stop-opacity="0.2"
         id="stop14" />
    </linearGradient>
    <linearGradient
       id="Grad4"
       gradientUnits="userSpaceOnUse"
       gradientTransform="matrix(0,0.01080322,-0.01083374,0,520,216.85)"
       x1="-819.20001"
       y1="0"
       x2="819.20001"
       y2="0">
      <stop
         offset="0.0"
         stop-color="#FFFFFF"
         stop-opacity="0.0"
         id="stop17" />
      <stop
         offset="1.0"
         stop-color="#FFFFFF"
         stop-opacity="0.2"
         id="stop19" />
    </linearGradient>
    <linearGradient
       id="Grad5"
       gradientUnits="userSpaceOnUse"
       gradientTransform="matrix(0,0.01080322,-0.01083374,0,468,164.85)"
       x1="-819.20001"
       y1="0"
       x2="819.20001"
       y2="0">
      <stop
         offset="0.0"
         stop-color="#FFFFFF"
         stop-opacity="0.0"
         id="stop22" />
      <stop
         offset="1.0"
         stop-color="#FFFFFF"
         stop-opacity="0.2"
         id="stop24" />
    </linearGradient>
    <linearGradient
       id="Grad6"
       gradientUnits="userSpaceOnUse"
       gradientTransform="matrix(0,0.01080322,-0.01083374,0,520,164.85)"
       x1="-819.20001"
       y1="0"
       x2="819.20001"
       y2="0">
      <stop
         offset="0.0"
         stop-color="#FFFFFF"
         stop-opacity="0.0"
         id="stop27" />
      <stop
         offset="1.0"
         stop-color="#FFFFFF"
         stop-opacity="0.2"
         id="stop29" />
    </linearGradient>
    <linearGradient
       id="Grad7"
       gradientUnits="userSpaceOnUse"
       gradientTransform="matrix(0,0.01080322,-0.01083374,0,520,112.85)"
       x1="-819.20001"
       y1="0"
       x2="819.20001"
       y2="0">
      <stop
         offset="0.0"
         stop-color="#FFFFFF"
         stop-opacity="0.0"
         id="stop32" />
      <stop
         offset="1.0"
         stop-color="#FFFFFF"
         stop-opacity="0.2"
         id="stop34" />
    </linearGradient>
    <linearGradient
       id="Grad8"
       gradientUnits="userSpaceOnUse"
       gradientTransform="matrix(0,0.01080322,-0.01083374,0,468,112.85)"
       x1="-819.20001"
       y1="0"
       x2="819.20001"
       y2="0">
      <stop
         offset="0.0"
         stop-color="#FFFFFF"
         stop-opacity="0.0"
         id="stop37" />
      <stop
         offset="1.0"
         stop-color="#FFFFFF"
         stop-opacity="0.2"
         id="stop39" />
    </linearGradient>
    <linearGradient
       id="Grad9"
       gradientUnits="userSpaceOnUse"
       gradientTransform="matrix(0,0.01080322,-0.01083374,0,520,320.85)"
       x1="-819.20001"
       y1="0"
       x2="819.20001"
       y2="0">
      <stop
         offset="0.0"
         stop-color="#FFFFFF"
         stop-opacity="0.0"
         id="stop42" />
      <stop
         offset="1.0"
         stop-color="#FFFFFF"
         stop-opacity="0.2"
         id="stop44" />
    </linearGradient>
    <linearGradient
       id="Grad10"
       gradientUnits="userSpaceOnUse"
       gradientTransform="matrix(0,0.01080322,-0.01083374,0,468,60.85)"
       x1="-819.20001"
       y1="0"
       x2="819.20001"
       y2="0">
      <stop
         offset="0.0"
         stop-color="#FFFFFF"
         stop-opacity="0.0"
         id="stop47" />
      <stop
         offset="1.0"
         stop-color="#FFFFFF"
         stop-opacity="0.101960786"
         id="stop49" />
    </linearGradient>
    <linearGradient
       id="Grad11"
       gradientUnits="userSpaceOnUse"
       gradientTransform="matrix(0,0.01080322,-0.01083374,0,520,60.85)"
       x1="-819.20001"
       y1="0"
       x2="819.20001"
       y2="0">
      <stop
         offset="0.0"
         stop-color="#FFFFFF"
         stop-opacity="0.0"
         id="stop52" />
      <stop
         offset="1.0"
         stop-color="#FFFFFF"
         stop-opacity="0.101960786"
         id="stop54" />
    </linearGradient>
    <linearGradient
       id="Grad12"
       gradientUnits="userSpaceOnUse"
       gradientTransform="matrix(0,0.01361084,-0.01351929,0,395.05,316.1)"
       x1="-819.20001"
       y1="0"
       x2="819.20001"
       y2="0">
      <stop
         offset="0.0"
         stop-color="#FFFFFF"
         stop-opacity="0.0"
         id="stop57" />
      <stop
         offset="1.0"
         stop-color="#FFFFFF"
         stop-opacity="0.2"
         id="stop59" />
    </linearGradient>
    <linearGradient
       id="Grad13"
       gradientUnits="userSpaceOnUse"
       gradientTransform="matrix(0,0.01361084,-0.01351929,0,395.05,264.1)"
       x1="-819.20001"
       y1="0"
       x2="819.20001"
       y2="0">
      <stop
         offset="0.0"
         stop-color="#FFFFFF"
         stop-opacity="0.0"
         id="stop62" />
      <stop
         offset="1.0"
         stop-color="#FFFFFF"
         stop-opacity="0.2"
         id="stop64" />
    </linearGradient>
    <linearGradient
       id="Grad14"
       gradientUnits="userSpaceOnUse"
       gradientTransform="matrix(0,0.01361084,-0.01351929,0,395.05,212.1)"
       x1="-819.20001"
       y1="0"
       x2="819.20001"
       y2="0">
      <stop
         offset="0.0"
         stop-color="#FFFFFF"
         stop-opacity="0.0"
         id="stop67" />
      <stop
         offset="1.0"
         stop-color="#FFFFFF"
         stop-opacity="0.2"
         id="stop69" />
    </linearGradient>
    <linearGradient
       id="Grad15"
       gradientUnits="userSpaceOnUse"
       gradientTransform="matrix(0,0.01361084,-0.01351929,0,395.05,160.1)"
       x1="-819.20001"
       y1="0"
       x2="819.20001"
       y2="0">
      <stop
         offset="0.0"
         stop-color="#FFFFFF"
         stop-opacity="0.0"
         id="stop72" />
      <stop
         offset="1.0"
         stop-color="#FFFFFF"
         stop-opacity="0.2"
         id="stop74" />
    </linearGradient>
    <linearGradient
       id="Grad16"
       gradientUnits="userSpaceOnUse"
       gradientTransform="matrix(0,0.01361084,-0.01351929,0,395.05,108.1)"
       x1="-819.20001"
       y1="0"
       x2="819.20001"
       y2="0">
      <stop
         offset="0.0"
         stop-color="#FFFFFF"
         stop-opacity="0.0"
         id="stop77" />
      <stop
         offset="1.0"
         stop-color="#FFFFFF"
         stop-opacity="0.2"
         id="stop79" />
    </linearGradient>
    <linearGradient
       id="Grad17"
       gradientUnits="userSpaceOnUse"
       gradientTransform="matrix(0,0.01361084,-0.01351929,0,395.05,56.1)"
       x1="-819.20001"
       y1="0"
       x2="819.20001"
       y2="0">
      <stop
         offset="0.0"
         stop-color="#FFFFFF"
         stop-opacity="0.0"
         id="stop82" />
      <stop
         offset="1.0"
         stop-color="#FFFFFF"
         stop-opacity="0.101960786"
         id="stop84" />
    </linearGradient>
    <linearGradient
       id="Grad18"
       gradientUnits="userSpaceOnUse"
       gradientTransform="matrix(0,0.01477051,-0.01342773,0,283.95,56.75)"
       x1="-819.20001"
       y1="0"
       x2="819.20001"
       y2="0">
      <stop
         offset="0.0"
         stop-color="#FFFFFF"
         stop-opacity="0.0"
         id="stop87" />
      <stop
         offset="1.0"
         stop-color="#FFFFFF"
         stop-opacity="0.101960786"
         id="stop89" />
    </linearGradient>
    <linearGradient
       id="Grad19"
       gradientUnits="userSpaceOnUse"
       gradientTransform="matrix(0,0.01477051,-0.01342773,0,283.95,108.75)"
       x1="-819.20001"
       y1="0"
       x2="819.20001"
       y2="0">
      <stop
         offset="0.0"
         stop-color="#FFFFFF"
         stop-opacity="0.0"
         id="stop92" />
      <stop
         offset="1.0"
         stop-color="#FFFFFF"
         stop-opacity="0.2"
         id="stop94" />
    </linearGradient>
    <linearGradient
       id="Grad20"
       gradientUnits="userSpaceOnUse"
       gradientTransform="matrix(0,0.01477051,-0.01342773,0,283.95,160.75)"
       x1="-819.20001"
       y1="0"
       x2="819.20001"
       y2="0">
      <stop
         offset="0.0"
         stop-color="#FFFFFF"
         stop-opacity="0.0"
         id="stop97" />
      <stop
         offset="1.0"
         stop-color="#FFFFFF"
         stop-opacity="0.2"
         id="stop99" />
    </linearGradient>
    <linearGradient
       id="Grad21"
       gradientUnits="userSpaceOnUse"
       gradientTransform="matrix(0,0.01477051,-0.01342773,0,283.95,212.75)"
       x1="-819.20001"
       y1="0"
       x2="819.20001"
       y2="0">
      <stop
         offset="0.0"
         stop-color="#FFFFFF"
         stop-opacity="0.0"
         id="stop102" />
      <stop
         offset="1.0"
         stop-color="#FFFFFF"
         stop-opacity="0.2"
         id="stop104" />
    </linearGradient>
    <linearGradient
       id="Grad22"
       gradientUnits="userSpaceOnUse"
       gradientTransform="matrix(0,0.01477051,-0.01342773,0,283.95,264.75)"
       x1="-819.20001"
       y1="0"
       x2="819.20001"
       y2="0">
      <stop
         offset="0.0"
         stop-color="#FFFFFF"
         stop-opacity="0.0"
         id="stop107" />
      <stop
         offset="1.0"
         stop-color="#FFFFFF"
         stop-opacity="0.2"
         id="stop109" />
    </linearGradient>
    <linearGradient
       id="Grad23"
       gradientUnits="userSpaceOnUse"
       gradientTransform="matrix(0,0.01477051,-0.01342773,0,283.95,316.75)"
       x1="-819.20001"
       y1="0"
       x2="819.20001"
       y2="0">
      <stop
         offset="0.0"
         stop-color="#FFFFFF"
         stop-opacity="0.0"
         id="stop112" />
      <stop
         offset="1.0"
         stop-color="#FFFFFF"
         stop-opacity="0.2"
         id="stop114" />
    </linearGradient>
    <radialGradient
       id="Grad24"
       gradientUnits="userSpaceOnUse"
       gradientTransform="matrix(0.00479126,0,0,0.00479126,377,424)"
       r="819.20001"
       cx="0"
       cy="0">
      <stop
         offset="0.0"
         stop-color="#FFFFFF"
         id="stop117" />
      <stop
         offset="1.0"
         stop-color="#FFFFFF"
         stop-opacity="0.0"
         id="stop119" />
    </radialGradient>
    <radialGradient
       id="Grad25"
       gradientUnits="userSpaceOnUse"
       gradientTransform="matrix(0.00119019,0,0,0.0138092,377.05,424)"
       r="819.20001"
       cx="0"
       cy="0">
      <stop
         offset="0.0"
         stop-color="#FFFFFF"
         id="stop122" />
      <stop
         offset="1.0"
         stop-color="#FFFFFF"
         stop-opacity="0.0"
         id="stop124" />
    </radialGradient>
    <radialGradient
       id="Grad26"
       gradientUnits="userSpaceOnUse"
       gradientTransform="matrix(0,-0.00119019,0.0138092,0,377,424)"
       r="819.20001"
       cx="0"
       cy="0">
      <stop
         offset="0.0"
         stop-color="#FFFFFF"
         id="stop127" />
      <stop
         offset="1.0"
         stop-color="#FFFFFF"
         stop-opacity="0.0"
         id="stop129" />
    </radialGradient>
    <linearGradient
       id="Grad1-3"
       gradientUnits="userSpaceOnUse"
       gradientTransform="matrix(0,0.01080322,-0.01083374,0,500,320.85)"
       x1="-819.20001"
       y1="0"
       x2="819.20001"
       y2="0">
      <stop
         offset="0.0"
         stop-color="#FFFFFF"
         stop-opacity="0.0"
         id="stop2-6" />
      <stop
         offset="1.0"
         stop-color="#FFFFFF"
         stop-opacity="0.2"
         id="stop4-7" />
    </linearGradient>
    <linearGradient
       id="Grad1-5"
       gradientUnits="userSpaceOnUse"
       gradientTransform="matrix(0,0.01080322,-0.01083374,0,532,320.85)"
       x1="-819.20001"
       y1="0"
       x2="819.20001"
       y2="0">
      <stop
         offset="0.0"
         stop-color="#FFFFFF"
         stop-opacity="0.0"
         id="stop2-3" />
      <stop
         offset="1.0"
         stop-color="#FFFFFF"
         stop-opacity="0.2"
         id="stop4-5" />
    </linearGradient>
    <linearGradient
       id="Grad1-0"
       gradientUnits="userSpaceOnUse"
       gradientTransform="matrix(0,0.01080322,-0.01083374,0,564,320.85)"
       x1="-819.20001"
       y1="0"
       x2="819.20001"
       y2="0">
      <stop
         offset="0.0"
         stop-color="#FFFFFF"
         stop-opacity="0.0"
         id="stop2-9" />
      <stop
         offset="1.0"
         stop-color="#FFFFFF"
         stop-opacity="0.2"
         id="stop4-3" />
    </linearGradient>
    <linearGradient
       id="Grad1-7"
       gradientUnits="userSpaceOnUse"
       gradientTransform="matrix(0,0.01080322,-0.01083374,0,596,320.85)"
       x1="-819.20001"
       y1="0"
       x2="819.20001"
       y2="0">
      <stop
         offset="0.0"
         stop-color="#FFFFFF"
         stop-opacity="0.0"
         id="stop2-92" />
      <stop
         offset="1.0"
         stop-color="#FFFFFF"
         stop-opacity="0.2"
         id="stop4-0" />
    </linearGradient>
    <linearGradient
       id="Grad1-2"
       gradientUnits="userSpaceOnUse"
       gradientTransform="matrix(0,0.01080322,-0.01083374,0,628,320.85)"
       x1="-819.20001"
       y1="0"
       x2="819.20001"
       y2="0">
      <stop
         offset="0.0"
         stop-color="#FFFFFF"
         stop-opacity="0.0"
         id="stop2-8" />
      <stop
         offset="1.0"
         stop-color="#FFFFFF"
         stop-opacity="0.2"
         id="stop4-9" />
    </linearGradient>
    <linearGradient
       id="Grad1-9"
       gradientUnits="userSpaceOnUse"
       gradientTransform="matrix(0,0.01080322,-0.01083374,0,660,320.85)"
       x1="-819.20001"
       y1="0"
       x2="819.20001"
       y2="0">
      <stop
         offset="0.0"
         stop-color="#FFFFFF"
         stop-opacity="0.0"
         id="stop2-4" />
      <stop
         offset="1.0"
         stop-color="#FFFFFF"
         stop-opacity="0.2"
         id="stop4-78" />
    </linearGradient>
    <linearGradient
       id="Grad1-6"
       gradientUnits="userSpaceOnUse"
       gradientTransform="matrix(0,0.01080322,-0.01083374,0,692,320.85)"
       x1="-819.20001"
       y1="0"
       x2="819.20001"
       y2="0">
      <stop
         offset="0.0"
         stop-color="#FFFFFF"
         stop-opacity="0.0"
         id="stop2-32" />
      <stop
         offset="1.0"
         stop-color="#FFFFFF"
         stop-opacity="0.2"
         id="stop4-06" />
    </linearGradient>
  </defs>
  <g
     id="g878"
     transform="translate(-436,-310)">
    <g
       id="g876">
      <path
         d="m 438,312 6,6 v 16 l -6,6 z m 22,6 6,-6 v 28 l -6,-6 z"
         id="path352"
         inkscape:connector-curvature="0"
         style="fill:#bbbbbb;stroke-linecap:round;stroke-linejoin:round" />
      <path
         d="m 444,318 -6,-6 h 28 l -6,6 z"
         id="path354"
         inkscape:connector-curvature="0"
         style="fill:#dddddd;stroke-linecap:round;stroke-linejoin:round" />
      <path
         d="m 444,318 h 16 v 16 h -16 z"
         id="path356"
         inkscape:connector-curvature="0"
         style="fill:#cccccc;stroke-linecap:round;stroke-linejoin:round" />
      <path
         d="m 466,312 h -28 v 28 h 28 z m -29.4,-1.4 c 0.36667,-0.4 0.83335,-0.6 1.4,-0.6 h 28 c 0.56668,0 1.05002,0.2 1.45,0.6 0.36668,0.36667 0.55,0.83335 0.55,1.4 v 28 c 0,0.56668 -0.18332,1.05002 -0.55,1.45 -0.39998,0.36668 -0.88332,0.55 -1.45,0.55 h -28 c -0.56668,0 -1.03336,-0.18332 -1.4,-0.55 -0.4,-0.39998 -0.6,-0.88332 -0.6,-1.45 v -28 c 0,-0.56668 0.2,-1.03336 0.6,-1.4 z"
         id="path358"
         inkscape:connector-curvature="0"
         style="fill:#777777;stroke-linecap:round;stroke-linejoin:round" />
      <path
         d="m 438,340 6,-6 h 16 l 6,6 z"
         id="path360"
         inkscape:connector-curvature="0"
         style="fill:#a6a6a6;stroke-linecap:round;stroke-linejoin:round" />
      <path
         d="m 470,312 6,6 v 16 l -6,6 z m 22,6 6,-6 v 28 l -6,-6 z"
         id="path256"
         inkscape:connector-curvature="0"
         style="overflow:visible;fill:#ed3434;fill-opacity:1;stroke-linecap:round;stroke-linejoin:round" />
      <path
         d="m 476,318 -6,-6 h 28 l -6,6 z"
         id="path258"
         inkscape:connector-curvature="0"
         style="overflow:visible;fill:#f37a7a;fill-opacity:1;stroke-linecap:round;stroke-linejoin:round" />
      <path
         d="m 476,318 h 16 v 16 h -16 z"
         id="path260"
         inkscape:connector-curvature="0"
         style="overflow:visible;fill:#f04a4a;fill-opacity:1;stroke-linecap:round;stroke-linejoin:round" />
      <path
         d="m 498,312 h -28 v 28 h 28 z m -28,-2 h 28 c 0.56668,0 1.05002,0.2 1.45,0.6 0.36668,0.36667 0.55,0.83335 0.55,1.4 v 28 c 0,0.56668 -0.18332,1.05002 -0.55,1.45 -0.39998,0.36668 -0.88332,0.55 -1.45,0.55 h -28 c -0.56668,0 -1.03336,-0.18332 -1.4,-0.55 -0.4,-0.39998 -0.6,-0.88332 -0.6,-1.45 v -28 c 0,-0.56668 0.2,-1.03336 0.6,-1.4 0.36667,-0.4 0.83335,-0.6 1.4,-0.6 z"
         id="path262"
         inkscape:connector-curvature="0"
         style="overflow:visible;fill:#ab1010;fill-opacity:1;stroke-linecap:round;stroke-linejoin:round" />
      <path
         d="m 470,340 6,-6 h 16 l 6,6 z"
         id="path264"
         inkscape:connector-curvature="0"
         style="overflow:visible;fill:#e21414;fill-opacity:1;stroke-linecap:round;stroke-linejoin:round" />
      <path
         d="m 492,326 h -16 l -6,3.75 V 312 h 28 v 17.75 z"
         id="path266"
         inkscape:connector-curvature="0"
         style="overflow:visible;fill:url(#Grad1-3);stroke-linecap:round;stroke-linejoin:round" />
      <path
         d="m 502,312 6,6 v 16 l -6,6 z m 22,6 6,-6 v 28 l -6,-6 z"
         id="path256-6"
         inkscape:connector-curvature="0"
         style="overflow:visible;fill:#ed7e34;fill-opacity:1;stroke-linecap:round;stroke-linejoin:round" />
      <path
         d="m 508,318 -6,-6 h 28 l -6,6 z"
         id="path258-2"
         inkscape:connector-curvature="0"
         style="overflow:visible;fill:#f3aa7a;fill-opacity:1;stroke-linecap:round;stroke-linejoin:round" />
      <path
         d="m 508,318 h 16 v 16 h -16 z"
         id="path260-9"
         inkscape:connector-curvature="0"
         style="overflow:visible;fill:#f08c4a;fill-opacity:1;stroke-linecap:round;stroke-linejoin:round" />
      <path
         d="m 530,312 h -28 v 28 h 28 z m -28,-2 h 28 c 0.56668,0 1.05002,0.2 1.45,0.6 0.36668,0.36667 0.55,0.83335 0.55,1.4 v 28 c 0,0.56668 -0.18332,1.05002 -0.55,1.45 -0.39998,0.36668 -0.88332,0.55 -1.45,0.55 h -28 c -0.56668,0 -1.03336,-0.18332 -1.4,-0.55 -0.4,-0.39998 -0.6,-0.88332 -0.6,-1.45 v -28 c 0,-0.56668 0.2,-1.03336 0.6,-1.4 0.36667,-0.4 0.83335,-0.6 1.4,-0.6 z"
         id="path262-1"
         inkscape:connector-curvature="0"
         style="overflow:visible;fill:#ab4e10;fill-opacity:1;stroke-linecap:round;stroke-linejoin:round" />
      <path
         d="m 502,340 6,-6 h 16 l 6,6 z"
         id="path264-2"
         inkscape:connector-curvature="0"
         style="overflow:visible;fill:#e26614;fill-opacity:1;stroke-linecap:round;stroke-linejoin:round" />
      <path
         d="m 524,326 h -16 l -6,3.75 V 312 h 28 v 17.75 z"
         id="path266-7"
         inkscape:connector-curvature="0"
         style="overflow:visible;fill:url(#Grad1-5);stroke-linecap:round;stroke-linejoin:round" />
      <path
         d="m 534,312 6,6 v 16 l -6,6 z m 22,6 6,-6 v 28 l -6,-6 z"
         id="path256-60"
         inkscape:connector-curvature="0"
         style="overflow:visible;fill:#ede234;fill-opacity:1;stroke-linecap:round;stroke-linejoin:round" />
      <path
         d="m 540,318 -6,-6 h 28 l -6,6 z"
         id="path258-6"
         inkscape:connector-curvature="0"
         style="overflow:visible;fill:#f3ec7a;fill-opacity:1;stroke-linecap:round;stroke-linejoin:round" />
      <path
         d="m 540,318 h 16 v 16 h -16 z"
         id="path260-2"
         inkscape:connector-curvature="0"
         style="overflow:visible;fill:#f0e64a;fill-opacity:1;stroke-linecap:round;stroke-linejoin:round" />
      <path
         d="m 562,312 h -28 v 28 h 28 z m -28,-2 h 28 c 0.56668,0 1.05002,0.2 1.45,0.6 0.36668,0.36667 0.55,0.83335 0.55,1.4 v 28 c 0,0.56668 -0.18332,1.05002 -0.55,1.45 -0.39998,0.36668 -0.88332,0.55 -1.45,0.55 h -28 c -0.56668,0 -1.03336,-0.18332 -1.4,-0.55 -0.4,-0.39998 -0.6,-0.88332 -0.6,-1.45 v -28 c 0,-0.56668 0.2,-1.03336 0.6,-1.4 0.36667,-0.4 0.83335,-0.6 1.4,-0.6 z"
         id="path262-6"
         inkscape:connector-curvature="0"
         style="overflow:visible;fill:#aba210;fill-opacity:1;stroke-linecap:round;stroke-linejoin:round" />
      <path
         d="m 534,340 6,-6 h 16 l 6,6 z"
         id="path264-1"
         inkscape:connector-curvature="0"
         style="overflow:visible;fill:#e2d614;fill-opacity:1;stroke-linecap:round;stroke-linejoin:round" />
      <path
         d="m 556,326 h -16 l -6,3.75 V 312 h 28 v 17.75 z"
         id="path266-8"
         inkscape:connector-curvature="0"
         style="overflow:visible;fill:url(#Grad1-0);stroke-linecap:round;stroke-linejoin:round" />
      <path
         d="m 566,312 6,6 v 16 l -6,6 z m 22,6 6,-6 v 28 l -6,-6 z"
         id="path256-2"
         inkscape:connector-curvature="0"
         style="overflow:visible;fill:#34ed34;fill-opacity:1;stroke-linecap:round;stroke-linejoin:round" />
      <path
         d="m 572,318 -6,-6 h 28 l -6,6 z"
         id="path258-3"
         inkscape:connector-curvature="0"
         style="overflow:visible;fill:#7af37a;fill-opacity:1;stroke-linecap:round;stroke-linejoin:round" />
      <path
         d="m 572,318 h 16 v 16 h -16 z"
         id="path260-7"
         inkscape:connector-curvature="0"
         style="overflow:visible;fill:#4af04a;fill-opacity:1;stroke-linecap:round;stroke-linejoin:round" />
      <path
         d="m 594,312 h -28 v 28 h 28 z m -28,-2 h 28 c 0.56668,0 1.05002,0.2 1.45,0.6 0.36668,0.36667 0.55,0.83335 0.55,1.4 v 28 c 0,0.56668 -0.18332,1.05002 -0.55,1.45 -0.39998,0.36668 -0.88332,0.55 -1.45,0.55 h -28 c -0.56668,0 -1.03336,-0.18332 -1.4,-0.55 -0.4,-0.39998 -0.6,-0.88332 -0.6,-1.45 v -28 c 0,-0.56668 0.2,-1.03336 0.6,-1.4 0.36667,-0.4 0.83335,-0.6 1.4,-0.6 z"
         id="path262-5"
         inkscape:connector-curvature="0"
         style="overflow:visible;fill:#10ab10;fill-opacity:1;stroke-linecap:round;stroke-linejoin:round" />
      <path
         d="m 566,340 6,-6 h 16 l 6,6 z"
         id="path264-9"
         inkscape:connector-curvature="0"
         style="overflow:visible;fill:#14e214;fill-opacity:1;stroke-linecap:round;stroke-linejoin:round" />
      <path
         d="m 588,326 h -16 l -6,3.75 V 312 h 28 v 17.75 z"
         id="path266-2"
         inkscape:connector-curvature="0"
         style="overflow:visible;fill:url(#Grad1-7);stroke-linecap:round;stroke-linejoin:round" />
      <path
         d="m 598,312 6,6 v 16 l -6,6 z m 22,6 6,-6 v 28 l -6,-6 z"
         id="path256-7"
         inkscape:connector-curvature="0"
         style="overflow:visible;fill:#34a5ed;fill-opacity:1;stroke-linecap:round;stroke-linejoin:round" />
      <path
         d="m 604,318 -6,-6 h 28 l -6,6 z"
         id="path258-36"
         inkscape:connector-curvature="0"
         style="overflow:visible;fill:#7ac4f3;fill-opacity:1;stroke-linecap:round;stroke-linejoin:round" />
      <path
         d="m 604,318 h 16 v 16 h -16 z"
         id="path260-1"
         inkscape:connector-curvature="0"
         style="overflow:visible;fill:#4ab0f0;fill-opacity:1;stroke-linecap:round;stroke-linejoin:round" />
      <path
         d="m 626,312 h -28 v 28 h 28 z m -28,-2 h 28 c 0.56668,0 1.05002,0.2 1.45,0.6 0.36668,0.36667 0.55,0.83335 0.55,1.4 v 28 c 0,0.56668 -0.18332,1.05002 -0.55,1.45 -0.39998,0.36668 -0.88332,0.55 -1.45,0.55 h -28 c -0.56668,0 -1.03336,-0.18332 -1.4,-0.55 -0.4,-0.39998 -0.6,-0.88332 -0.6,-1.45 v -28 c 0,-0.56668 0.2,-1.03336 0.6,-1.4 0.36667,-0.4 0.83335,-0.6 1.4,-0.6 z"
         id="path262-2"
         inkscape:connector-curvature="0"
         style="overflow:visible;fill:#106fab;fill-opacity:1;stroke-linecap:round;stroke-linejoin:round" />
      <path
         d="m 598,340 6,-6 h 16 l 6,6 z"
         id="path264-93"
         inkscape:connector-curvature="0"
         style="overflow:visible;fill:#1492e2;fill-opacity:1;stroke-linecap:round;stroke-linejoin:round" />
      <path
         d="m 620,326 h -16 l -6,3.75 V 312 h 28 v 17.75 z"
         id="path266-1"
         inkscape:connector-curvature="0"
         style="overflow:visible;fill:url(#Grad1-2);stroke-linecap:round;stroke-linejoin:round" />
      <path
         d="m 630,312 6,6 v 16 l -6,6 z m 22,6 6,-6 v 28 l -6,-6 z"
         id="path256-4"
         inkscape:connector-curvature="0"
         style="overflow:visible;fill:#6434ed;fill-opacity:1;stroke-linecap:round;stroke-linejoin:round" />
      <path
         d="m 636,318 -6,-6 h 28 l -6,6 z"
         id="path258-5"
         inkscape:connector-curvature="0"
         style="overflow:visible;fill:#997af3;fill-opacity:1;stroke-linecap:round;stroke-linejoin:round" />
      <path
         d="m 636,318 h 16 v 16 h -16 z"
         id="path260-0"
         inkscape:connector-curvature="0"
         style="overflow:visible;fill:#754af0;fill-opacity:1;stroke-linecap:round;stroke-linejoin:round" />
      <path
         d="m 658,312 h -28 v 28 h 28 z m -28,-2 h 28 c 0.56668,0 1.05002,0.2 1.45,0.6 0.36668,0.36667 0.55,0.83335 0.55,1.4 v 28 c 0,0.56668 -0.18332,1.05002 -0.55,1.45 -0.39998,0.36668 -0.88332,0.55 -1.45,0.55 h -28 c -0.56668,0 -1.03336,-0.18332 -1.4,-0.55 -0.4,-0.39998 -0.6,-0.88332 -0.6,-1.45 v -28 c 0,-0.56668 0.2,-1.03336 0.6,-1.4 0.36667,-0.4 0.83335,-0.6 1.4,-0.6 z"
         id="path262-3"
         inkscape:connector-curvature="0"
         style="overflow:visible;fill:#3810ab;fill-opacity:1;stroke-linecap:round;stroke-linejoin:round" />
      <path
         d="m 630,340 6,-6 h 16 l 6,6 z"
         id="path264-6"
         inkscape:connector-curvature="0"
         style="overflow:visible;fill:#4914e2;fill-opacity:1;stroke-linecap:round;stroke-linejoin:round" />
      <path
         d="m 652,326 h -16 l -6,3.75 V 312 h 28 v 17.75 z"
         id="path266-10"
         inkscape:connector-curvature="0"
         style="overflow:visible;fill:url(#Grad1-9);stroke-linecap:round;stroke-linejoin:round" />
      <path
         d="m 662,312 6,6 v 16 l -6,6 z m 22,6 6,-6 v 28 l -6,-6 z"
         id="path256-1"
         inkscape:connector-curvature="0"
         style="overflow:visible;fill:#a534ed;fill-opacity:1;stroke-linecap:round;stroke-linejoin:round" />
      <path
         d="m 668,318 -6,-6 h 28 l -6,6 z"
         id="path258-55"
         inkscape:connector-curvature="0"
         style="overflow:visible;fill:#c47af3;fill-opacity:1;stroke-linecap:round;stroke-linejoin:round" />
      <path
         d="m 668,318 h 16 v 16 h -16 z"
         id="path260-4"
         inkscape:connector-curvature="0"
         style="overflow:visible;fill:#b04af0;fill-opacity:1;stroke-linecap:round;stroke-linejoin:round" />
      <path
         d="m 690,312 h -28 v 28 h 28 z m -28,-2 h 28 c 0.56668,0 1.05002,0.2 1.45,0.6 0.36668,0.36667 0.55,0.83335 0.55,1.4 v 28 c 0,0.56668 -0.18332,1.05002 -0.55,1.45 -0.39998,0.36668 -0.88332,0.55 -1.45,0.55 h -28 c -0.56668,0 -1.03336,-0.18332 -1.4,-0.55 -0.4,-0.39998 -0.6,-0.88332 -0.6,-1.45 v -28 c 0,-0.56668 0.2,-1.03336 0.6,-1.4 0.36667,-0.4 0.83335,-0.6 1.4,-0.6 z"
         id="path262-7"
         inkscape:connector-curvature="0"
         style="overflow:visible;fill:#6f10ab;fill-opacity:1;stroke-linecap:round;stroke-linejoin:round" />
      <path
         d="m 662,340 6,-6 h 16 l 6,6 z"
         id="path264-65"
         inkscape:connector-curvature="0"
         style="overflow:visible;fill:#9214e2;fill-opacity:1;stroke-linecap:round;stroke-linejoin:round" />
      <path
         d="m 684,326 h -16 l -6,3.75 V 312 h 28 v 17.75 z"
         id="path266-6"
         inkscape:connector-curvature="0"
         style="overflow:visible;fill:url(#Grad1-6);stroke-linecap:round;stroke-linejoin:round" />
    </g>
  </g>
</svg>
